<svg width="141" height="179" viewBox="0 0 141 179" xmlns="http://www.w3.org/2000/svg"><title>Fill 1</title><path d="M100.093 128.688c-6.336 7.379-9.865 20.835-5.242 25.17 4.419 3.366 16.284 2.895 25.048-9.193 6.365-8.119 4.232-21.679.597-25.279-5.4-4.152-13.152 1.161-20.403 9.3v.002zm-58.964 2.223c-6.721-7.752-15.453-12.374-21.104-8.952-3.78 2.859-4.473 12.592.909 22.155 7.981 11.398 19.21 12.54 23.834 9.766 4.887-3.632 2.217-15.955-3.639-22.969zm30.443 23.514c-8.174-.203-20.71 3.256-20.558 7.687-.13 3.022 9.842 11.74 20.013 11.304 9.82.168 19.967-8.537 19.83-12.39-.02-3.967-11.06-6.958-19.285-6.6zm-.729-104.127c-9.435-.245-18.49 6.96-18.511 11.14-.027 5.077 7.46 10.276 18.575 10.408 11.353.081 18.596-4.161 18.633-9.402.041-5.937-10.325-12.239-18.697-12.147zM49.065 54.27c-15.81-2.653-28.962 6.685-28.43 23.724.519 6.532 34.253-22.751 28.43-23.724zm72.107 24.224c.53-17.041-12.623-26.377-28.43-23.724-5.825.973 27.91 30.256 28.43 23.724zm2.291 6.205c-9.16-2.44-3.092 37.674 4.361 34.382 8.198-6.555 10.839-25.754-4.36-34.382zM13.246 119.58c7.453 3.292 13.52-36.82 4.36-34.38-15.2 8.628-12.559 27.825-4.36 34.38zm69.14-44.472c-8.485 5.526-10.014 18.051-3.417 27.975 6.598 9.925 18.824 13.492 27.308 7.966 8.485-5.525 10.014-18.051 3.417-27.976-6.598-9.925-18.824-13.49-27.309-7.965zm-22.9 1C51 70.582 38.775 74.15 32.177 84.073 25.58 94 27.11 106.524 35.594 112.05c8.484 5.525 20.71 1.959 27.308-7.966 6.597-9.924 5.068-22.45-3.417-27.976zm31.925 53.42c-.059-10.366-9.275-18.724-20.583-18.67-11.309.055-20.427 8.503-20.368 18.868v.198c.06 10.366 9.275 18.725 20.584 18.67 11.308-.054 20.427-8.502 20.367-18.868v-.197zM116.008 16.61c-17.093 8.762-27.03 15.847-32.474 21.884 2.788 11.109 17.333 11.615 22.651 11.304-1.09-.504-1.998-1.108-2.32-2.035 1.335-.942 6.067-.1 9.37-1.944-1.269-.262-1.862-.516-2.456-1.447 3.121-.99 6.483-1.843 8.46-3.482-1.066.014-2.063.238-3.457-.723 2.796-1.498 5.779-2.684 8.096-4.974-1.445-.035-3.003-.014-3.457-.542 2.56-1.576 4.718-3.329 6.505-5.245-2.022.242-2.876.034-3.366-.317 1.934-1.968 4.382-3.632 5.55-6.058-1.503.514-2.877.711-3.867-.045.657-1.475 3.473-2.344 5.094-5.788-1.58.152-3.257.343-3.593 0 .735-2.973 1.995-4.644 3.229-6.376-3.383-.05-8.51.014-8.278-.27l2.093-2.126c-3.306-.884-6.688.142-9.143.904-1.102-.864.02-1.958 1.364-3.074-2.808.373-5.347 1.014-7.64 1.899-1.227-1.1.795-2.2 1.773-3.3-4.34.818-6.178 1.968-8.005 3.119-1.326-1.263-.076-2.337.818-3.436-3.271 1.204-4.957 2.76-6.731 4.295-.602-.807-1.528-1.398-.41-3.346-2.323 1.331-4.072 2.9-5.366 4.657-1.438-.91-.857-2.154-.865-3.3-2.414 1.952-3.947 4.03-5.822 6.058-.378-.273-.708-1.2-1-2.667-5.76 5.554-13.9 19.546-2.093 25.094 10.043-8.24 22.043-14.228 35.342-18.719h-.002zm-90.543.002c13.298 4.492 25.298 10.48 35.347 18.718 11.806-5.548 3.667-19.54-2.092-25.094-.293 1.467-.624 2.395-1.001 2.668-1.876-2.03-3.408-4.107-5.822-6.06-.008 1.147.573 2.392-.864 3.301-1.295-1.757-3.045-3.325-5.368-4.657 1.12 1.948.193 2.54-.41 3.346-1.773-1.535-3.459-3.09-6.731-4.295.895 1.1 2.145 2.173.819 3.436-1.827-1.151-3.666-2.301-8.006-3.12.979 1.1 3 2.2 1.774 3.301-2.294-.884-4.832-1.526-7.64-1.9 1.344 1.117 2.466 2.211 1.364 3.075-2.456-.762-5.838-1.788-9.142-.904l2.092 2.125c.232.285-4.895.222-8.279.272 1.236 1.731 2.494 3.402 3.229 6.374-.336.343-2.013.152-3.594 0 1.621 3.444 4.437 4.313 5.095 5.788-.991.756-2.365.56-3.867.045 1.167 2.426 3.615 4.09 5.55 6.058-.49.35-1.344.56-3.367.317 1.787 1.916 3.946 3.67 6.504 5.245-.453.528-2.011.507-3.456.542 2.318 2.29 5.3 3.476 8.096 4.974-1.394.96-2.39.737-3.457.723 1.978 1.64 5.34 2.493 8.46 3.482-.593.931-1.187 1.185-2.456 1.447 3.304 1.845 8.036 1.002 9.37 1.944-.322.927-1.23 1.531-2.32 2.035 5.319.311 19.863-.195 22.651-11.304C52.5 32.457 42.563 25.37 25.468 16.609l-.003.002zm12.7-16.61c1.738-.054 3.214.996 4.82 1.5 3.92-1.272 4.812.471 6.737 1.181 4.271-.897 5.57 1.056 7.62 3.119l2.382-.047c6.442 3.773 9.635 11.46 10.77 15.411 1.136-3.95 4.336-11.636 10.78-15.411l2.382.047c2.048-2.063 3.347-4.016 7.618-3.119 1.925-.71 2.82-2.453 6.738-1.18 2.445-.77 4.586-2.804 7.821-.266 2.725-1.044 5.366-1.407 7.729.72 3.648-.471 4.832.5 5.73 1.632.803-.016 5.993-.818 8.373 2.713 5.985-.704 7.874 3.498 5.733 7.416 1.221 1.88 2.49 3.738-.369 7.322 1.01 1.996.384 4.162-1.997 6.783.628 2.807-.607 4.787-2.822 6.33.414 3.841-3.543 6.075-4.726 6.87-.453 2.238-1.399 4.35-5.92 5.518-.744 3.335-3.461 3.91-6.092 4.61 8.695 5.026 16.151 11.637 16.1 27.856l1.276 2.258c9.971 6.028 18.94 25.401 4.914 41.148-.917 4.929-2.454 8.469-3.821 12.387-2.047 15.789-15.401 23.182-18.924 24.056-5.162 3.908-10.659 7.617-18.098 10.215-7.013 7.19-14.61 9.93-22.25 9.926h-.337c-7.64.003-15.236-2.737-22.249-9.926-7.44-2.598-12.936-6.307-18.098-10.215-3.523-.874-16.877-8.267-18.924-24.056-1.368-3.918-2.904-7.458-3.82-12.387-14.028-15.746-5.057-35.118 4.912-41.145l1.274-2.259c-.05-16.22 7.406-22.83 16.101-27.855-2.63-.7-5.347-1.276-6.092-4.611-4.52-1.168-5.467-3.28-5.92-5.517-1.183-.796-5.14-3.03-4.725-6.87-2.216-1.543-3.451-3.524-2.823-6.33-2.381-2.622-3.008-4.788-1.997-6.784-2.857-3.585-1.591-5.443-.37-7.323-2.142-3.919-.25-8.12 5.732-7.417 2.38-3.53 7.572-2.729 8.373-2.712.898-1.133 2.084-2.104 5.731-1.633 2.362-2.127 5.004-1.764 7.73-.72 1.109-.871 2.09-1.205 3-1.233l-.003-.001z" fill="#448295" fill-rule="evenodd"/></svg>