<?xml version="1.0" encoding="UTF-8"?>
<svg width="141px" height="179px" viewBox="0 0 141 179" version="1.1" xmlns="http://www.w3.org/2000/svg" xmlns:xlink="http://www.w3.org/1999/xlink">
    <!-- Generator: Sketch 43 (38999) - http://www.bohemiancoding.com/sketch -->
    <title>Fill 1</title>
    <desc>Created with Sketch.</desc>
    <defs></defs>
    <g id="Page-1" stroke="none" stroke-width="1" fill="none" fill-rule="evenodd">
        <path d="M100.093,128.688022 C93.75663,136.066507 90.2281835,149.52316 94.8508752,153.85707 C99.2699531,157.224196 111.13511,156.753376 119.899381,144.664961 C126.263529,136.546287 124.131168,122.986452 120.495903,119.386084 C115.095985,115.233681 107.344056,120.547382 100.093,128.68571 L100.093,128.688022 Z M41.1291953,130.911481 C34.4079356,123.158999 25.6760255,118.536644 20.024669,121.959262 C16.2450701,124.817706 15.5517522,134.550578 20.9339148,144.113793 C28.9152317,155.51202 40.1440597,156.653952 44.7681832,153.880192 C49.6552006,150.248032 46.9853112,137.925219 41.1291953,130.911481 Z M71.5721774,154.425291 C63.3978427,154.222107 50.861419,157.681142 51.0137713,162.111586 C50.8831836,165.133618 60.8556772,173.851439 71.0266299,173.415591 C80.8470576,173.583803 90.994241,164.878988 90.8576393,161.026302 C90.8361611,157.058874 79.7977736,154.068057 71.5721774,154.425291 Z M70.8433489,50.2975779 C61.4083841,50.0533529 52.3537276,57.2584239 52.3316766,61.4371281 C52.30533,66.5149849 59.7912153,71.7142317 70.9074972,71.8463155 C82.2597535,71.9269531 89.5030778,67.6846637 89.539734,62.4440866 C89.5812587,56.5066734 79.2152835,50.2053794 70.8433489,50.2967108 L70.8433489,50.2975779 Z M49.0646919,54.2710753 C33.255556,51.617549 20.1031362,60.9559037 20.6340784,77.994716 C21.1535657,84.5272289 54.8884472,55.2439289 49.0646919,54.2710753 Z M121.172325,78.4947269 C121.702694,61.4538915 108.549415,52.117849 92.7414249,54.7713753 C86.9168104,55.7436509 120.651978,85.0272399 121.172325,78.4947269 Z M123.463338,84.7000651 C114.302149,82.2598382 120.371043,122.373722 127.824281,119.082321 C136.022385,112.526686 138.662778,93.3282886 123.463338,84.7000651 Z M13.2458476,119.580597 C20.6987996,122.87171 26.765975,82.7592711 17.6065046,85.200076 C2.40649181,93.8282996 5.04745717,113.025252 13.2458476,119.580597 Z M82.3854729,75.1079476 C73.9009922,80.6335021 72.371741,93.1594988 78.969286,103.083126 C85.5674037,113.00791 97.7931088,116.57504 106.277303,111.049197 C114.761784,105.523642 116.291321,92.9979346 109.693776,83.0734399 C103.095945,73.1483671 90.8696672,69.5821041 82.3854729,75.1079476 Z M59.485365,76.1082585 C51.0014571,70.582415 38.7754657,74.1489671 32.1779207,84.0734618 C25.5800894,93.9985345 27.1099134,106.523953 35.5941076,112.049797 C44.0777292,117.575351 56.3042933,114.00851 62.9018383,104.083726 C69.4993833,94.1595207 67.9698457,81.634102 59.485365,76.1082585 Z M91.4114918,129.528792 C91.3522118,119.16238 82.1363252,110.803816 70.8281709,110.858441 C59.5194438,110.912778 50.4006389,119.360939 50.4599189,129.726484 L50.4599189,129.924465 C50.5194852,140.290299 59.7353718,148.649442 71.0435261,148.594816 C82.3516804,148.540191 91.4710581,140.092318 91.4114918,129.726484 C91.4117781,129.660587 91.4117781,129.594689 91.4114918,129.528792 Z M116.007808,16.6089792 C98.9154188,25.3710207 88.9778631,32.4558579 83.5335568,38.4926952 C86.3217198,49.6016089 100.866503,50.1082674 106.18509,49.7966999 C105.095713,49.2932207 104.187326,48.6891612 103.865439,47.7619733 C105.199954,46.8197561 109.932042,47.6625491 113.235396,45.8180001 C111.966461,45.5561446 111.372516,45.3020928 110.779144,44.3708586 C113.900076,43.3815306 117.261852,42.5283327 119.239569,40.8892795 C118.172529,40.9028636 117.175652,41.1268569 115.78243,40.1658532 C118.577752,38.6681326 121.560938,37.4816904 123.878298,35.192334 C122.432955,35.1573621 120.875352,35.1778828 120.421445,34.6498365 C122.980793,33.0743685 125.139214,31.32144 126.925918,29.4052131 C124.903526,29.6474149 124.049551,29.4387398 123.56042,29.0884431 C125.494321,27.1196139 127.941982,25.4562827 129.10954,23.02964 C127.607494,23.5443911 126.233459,23.7412162 125.242882,22.9845523 C125.900403,21.5102426 128.716058,20.6411484 130.337236,17.1968533 C128.756437,17.3491688 127.079702,17.5396354 126.744069,17.1968533 C127.478911,14.2236669 128.738682,12.552821 129.972965,10.8212803 C126.589712,10.7715682 121.462997,10.8348644 121.694962,10.5501761 L123.787516,8.42527405 C120.481871,7.5405726 117.100335,8.56689565 114.644942,9.32934008 C113.542965,8.46458127 114.664416,7.37091571 116.00924,6.25499533 C113.200745,6.62754684 110.662016,7.2694684 108.368139,8.15388083 C107.14216,7.05385675 109.164266,5.95325462 110.141956,4.85323054 C105.802491,5.67174557 103.964239,6.82177074 102.13687,7.97295201 C100.810946,6.70991858 102.06098,5.63619566 102.955334,4.53703865 C99.6837673,5.74140027 97.9981544,7.29663663 96.2237648,8.83193035 C95.6223738,8.02497627 94.6959454,7.43363385 95.8145326,5.48590335 C93.4911589,6.81743539 91.741684,8.38596683 90.447548,10.1432307 C89.0099373,9.23338422 89.5909955,7.98913734 89.5832633,6.84286947 C87.1685355,8.79493532 85.6364205,10.8724374 83.7612262,12.9010946 C83.3834955,12.6279672 83.0527304,11.7002012 82.7603399,10.2336951 C77.0004466,15.788441 68.8613362,29.7803658 80.6683586,35.3278861 C90.7107281,27.0881103 102.710768,21.100407 116.009813,16.6089792 L116.007808,16.6089792 Z M25.4646796,16.6110024 C38.7631515,21.1030082 50.7634781,27.0912896 60.8115752,35.3290422 C72.6177385,29.7812329 64.4789145,15.7898861 58.7195939,10.2348512 C58.4274897,11.7016463 58.0964383,12.6297013 57.7189939,12.9025397 C55.8432269,10.8738826 54.3111119,8.79609142 51.8966705,6.84373654 C51.8889383,7.99029343 52.4697101,9.23454032 51.0326722,10.1443868 C49.737677,8.38712293 47.9882021,6.81888051 45.6654012,5.48734847 C46.7842748,7.43478994 45.85756,8.02642139 45.2558826,8.83337547 C43.4817794,7.29779272 41.7961665,5.74255637 38.524027,4.53790572 C39.418954,5.63764078 40.6687017,6.71107468 39.3427778,7.97439713 C37.5159812,6.82263781 35.6771569,5.67290166 31.3374053,4.85438664 C32.3156679,5.95441072 34.3374869,7.05443479 33.1112222,8.15532594 C30.8173453,7.27091352 28.2794755,6.62899196 25.4701207,6.2558624 C26.8152318,7.37236083 27.9372555,8.46602639 26.8349918,9.33049618 C24.3793121,8.56834077 20.9974904,7.5417287 17.692704,8.42614112 L19.7846853,10.5513321 C20.0169368,10.8357314 14.8902222,10.7730133 11.5063959,10.8227254 C12.7415383,12.5539771 14.00045,14.225112 14.7347197,17.1968533 C14.3990863,17.5396354 12.7223511,17.3491688 11.1409793,17.1968533 C12.7624438,20.6411484 15.5783853,21.5102426 16.2356197,22.9845523 C15.2450429,23.7412162 13.8710078,23.5443911 12.3692487,23.02964 C13.5362335,25.4562827 15.9844673,27.1196139 17.9183688,29.0884431 C17.4292375,29.4387398 16.5752624,29.6474149 14.5520114,29.4052131 C16.339288,31.32144 18.4979951,33.0743685 21.056484,34.6498365 C20.6034361,35.1778828 19.0449745,35.1573621 17.6002043,35.192334 C19.9175641,37.4816904 22.9004632,38.6681326 25.6963583,40.1658532 C24.3022768,41.1268569 23.3065452,40.9028636 22.2392195,40.8892795 C24.2166502,42.5283327 27.5784255,43.3815306 30.6990718,44.3708586 C30.1059857,45.3020928 29.5120406,45.5561446 28.2433921,45.8180001 C31.5467466,47.6625491 36.2785478,46.8197561 37.6130629,47.7619733 C37.2908892,48.6891612 36.3822161,49.2932207 35.2936985,49.7966999 C40.6117127,50.1082674 55.1564958,49.6016089 57.9443723,38.4926952 C52.5003524,32.457014 42.5625104,25.3695756 25.4681161,16.6089792 L25.4646796,16.6110024 Z M38.1651971,0.00196827994 C39.9029305,-0.0515010986 41.3794885,0.997943839 42.9846295,1.50257916 C46.9042666,0.230296977 47.7971889,1.97339872 49.7216399,2.68295182 C53.9932339,1.78582236 55.2916655,3.73933333 57.3421223,5.8015172 L59.7242031,5.75469536 C66.1659592,9.52818837 69.3593451,17.2141948 70.4948285,21.1663044 C71.6294527,17.2150618 74.829998,9.52905544 81.2728996,5.75469536 L83.6552669,5.8015172 C85.7031462,3.73933333 87.0015779,1.78582236 91.2734582,2.68295182 C93.1976228,1.97339872 94.0936953,0.230296977 98.010755,1.50257916 C100.456125,0.733776206 102.596504,-1.30066139 105.832274,1.23725544 C108.556861,0.192723901 111.198399,-0.170289826 113.561006,1.9560573 C117.208586,1.48552677 118.393326,2.45635727 119.291403,3.58933004 C120.094403,3.57314472 125.28412,2.77139306 127.664197,6.30181716 C133.649468,5.59775551 135.538409,9.79987061 133.397457,13.7181645 C134.617994,15.5985525 135.886356,17.4561076 133.028031,21.039712 C134.038654,23.0362875 133.412349,25.2019419 131.03084,27.8233865 C131.659151,30.6298063 130.423722,32.6101965 128.208599,34.1535829 C128.622986,37.9944184 124.665547,40.2279933 123.483384,41.0233865 C123.03005,43.2610077 122.084148,45.3731927 117.563406,46.5414263 C116.818541,49.8761814 114.101686,50.4519165 111.470743,51.1519319 C120.165711,56.1774754 127.622099,62.7883137 127.571697,79.0071659 L128.846932,81.2653078 C138.817994,87.2928964 147.787597,106.666153 133.760583,122.41274 C132.844464,127.34175 131.30748,130.882001 129.940032,134.800006 C127.893298,150.588791 114.538696,157.981727 111.016264,158.856313 C105.854325,162.764491 100.357039,166.473242 92.9181192,169.070987 C85.9053281,176.261029 78.3083287,179.000684 70.6689455,178.996638 C70.5569722,178.998083 70.4429943,178.996638 70.3310211,178.996638 C62.6916379,179.000395 55.0946384,176.260451 48.0821337,169.070987 C40.6426414,166.473242 35.1456418,162.764491 29.9839893,158.856313 C26.4612703,157.981727 13.1066685,150.588791 11.0602211,134.800006 C9.69191348,130.882001 8.15550282,127.34175 7.23909758,122.41274 C-6.78763015,106.667309 2.18254528,87.2952086 12.1521752,81.267909 L13.4262648,79.0094781 C13.3761489,62.7891808 20.8319647,56.1783425 29.5272186,51.1542441 C26.8962764,50.4542287 24.1797076,49.8784936 23.4345556,46.5428714 C18.9141004,45.3752158 17.9679119,43.2636089 17.5142913,41.0256986 C16.332415,40.2297275 12.3749762,37.9964416 12.7896496,34.1558951 C10.5742399,32.6125087 9.33852471,30.6324076 9.96712143,27.8256987 C7.58589969,25.2042541 6.9593076,23.0383107 7.96993076,21.0417352 C5.11303742,17.4572637 6.37882216,15.5994195 7.60050489,13.7187425 C5.45783489,9.80044866 7.34906621,5.59833356 13.3320469,6.30210619 C15.7124095,2.77197111 20.9041316,3.57343374 21.7048407,3.58990809 C22.6032042,2.45693531 23.7888035,1.48610481 27.4363827,1.95663534 C29.7984172,-0.169711779 32.4399553,0.193301948 35.1651154,1.23783348 C36.2771159,0.364982007 37.2579559,0.0308706467 38.1683472,0.00341339828 L38.1651971,0.00196827994 L38.1651971,0.00196827994 Z" id="Fill-1" fill="#448295"></path>
    </g>
</svg>